# xmcd
#
# Track frame offsets:
#	150
#	11520
#	25747
#	38382
#	55630
#	69922
#	86620
#	101637
#	122585
#	139477
#	154457
#	167405
#
# Disc length: 2433 seconds
#
# Revision: 0
# Processed by: cddbd v1.5.1PL2 Copyright (c) Steve Scherf et al.
# Submitted via: dBpowerAMP V4.0
#
DISCID=8d097f0c
DTITLE=Sure Cha Cha Chaa - vol 3
DYEAR=2002
DGENRE=Country
TTITLE0=Hang krueng ( female )
TTITLE1=Lhao ja ( male )
TTITLE2=Mai ruk tummai mai bok ( female )
TTITLE3=Huk sao Khon-kaen and Noom mor kaen ( male - female )
TTITLE4=Porn porn nai duang jai ( female )
TTITLE5=Jao parb jong ja-ruen ( group )
TTITLE6=Ja khor kor reeb kor ( female )
TTITLE7=Ror wun pah pa and Pob kun wun pah pa ( male - female )
TTITLE8=Sao rong-ngarn khon suay and Sao rong-ngarn khon jon ( male - female )
TTITLE9=Roo wa kao lhok ( female )
TTITLE10=Sao ChiangMai ( female )
TTITLE11=Sieng kaen taen jai ( male )
EXTD=Thai album
EXTT0=
EXTT1=
EXTT2=
EXTT3=
EXTT4=
EXTT5=
EXTT6=
EXTT7=
EXTT8=
EXTT9=
EXTT10=
EXTT11=
PLAYORDER=
